<svg
        xmlns="http://www.w3.org/2000/svg"
        width="84"
        height="84"
        fill="none"
        viewBox="0 0 84 84"
>
    <path
            fill="#172B4D"
            d="M38.869 0l9.694 5.575-38.176 21.953-9.694-5.574L38.869 0zM48.954 6.745L11.018 28.551l-.001 11.032 37.936-21.805V6.745zM33.699 28.276l-22.601 12.99-.002 11.034 22.601-12.992.002-11.032zM25.035 45.717l-13.99 8.042-.002 11.033 13.99-8.042.002-11.033zM.004 23.017l9.75 5.605-.003 11.035L0 34.053l.004-11.036zM.097 35.657l9.632 5.537-.004 11.035-9.632-5.536.004-11.036zM.092 48.221l9.636 5.539-.004 11.763-9.636-5.539.004-11.763zM21.564 84l-9.694-5.575 37.743-21.704 9.694 5.575L21.564 84zM11.102 77.471l37.879-21.773.001-11.032-37.879 21.773-.001 11.032zM26.3 55.974l22.601-12.992.001-11.032-22.6 12.99-.002 11.034zM34.964 38.532l13.99-8.042.002-11.033-13.99 8.042-.002 11.033zM59.996 61.306l-9.75-5.605.003-11.035L60 50.271l-.004 11.035zM59.904 48.595l-9.633-5.537.004-11.035 9.633 5.536-.004 11.036zM59.908 36.03l-9.636-5.538.004-11.552 9.636 5.539-.004 11.552z"
    ></path>
</svg>